HIERARCHY
ROOT Hips
{
	OFFSET 0.000000 0.000000 0.000000
	CHANNELS 6 Xposition Yposition Zposition Zrotation Yrotation Xrotation 
	JOINT LHipJoint
	{
		OFFSET 0.000000 0.000000 0.000000
		CHANNELS 3 Zrotation Yrotation Xrotation
		JOINT LeftUpLeg
		{
			OFFSET 1.363060 -1.794630 0.839290
			CHANNELS 3 Zrotation Yrotation Xrotation
			JOINT LeftLeg
			{
				OFFSET 2.448110 -6.726130 0.000000
				CHANNELS 3 Zrotation Yrotation Xrotation
				JOINT LeftFoot
				{
					OFFSET 2.562200 -7.039590 0.000000
					CHANNELS 3 Zrotation Yrotation Xrotation
					JOINT LeftToeBase
					{
						OFFSET 0.157640 -0.433110 2.322550
						CHANNELS 3 Zrotation Yrotation Xrotation
						End Site
						{
							OFFSET 0.000000 0.000000 0.000000
						}
					}
				}
			}
		}
	}
	JOINT RHipJoint
	{
		OFFSET 0.000000 0.000000 0.000000
		CHANNELS 3 Zrotation Yrotation Xrotation
		JOINT RightUpLeg
		{
			OFFSET -1.305520 -1.794630 0.839290
			CHANNELS 3 Zrotation Yrotation Xrotation
			JOINT RightLeg
			{
				OFFSET -2.542530 -6.985550 0.000000
				CHANNELS 3 Zrotation Yrotation Xrotation
				JOINT RightFoot
				{
					OFFSET -2.568260 -7.056230 0.000000
					CHANNELS 3 Zrotation Yrotation Xrotation
					JOINT RightToeBase
					{
						OFFSET -0.164730 -0.452590 2.363150
						CHANNELS 3 Zrotation Yrotation Xrotation
						End Site
						{
							OFFSET 0.000000 0.000000 0.000000
						}
					}
				}
			}
		}
	}
	JOINT LowerBack
	{
		OFFSET 0.000000 0.000000 0.000000
		CHANNELS 3 Zrotation Yrotation Xrotation
		JOINT Spine
		{
			OFFSET 0.028270 2.035590 -0.193380
			CHANNELS 3 Zrotation Yrotation Xrotation
			JOINT Spine1
			{
				OFFSET 0.056720 2.048850 -0.042750
				CHANNELS 3 Zrotation Yrotation Xrotation
				JOINT Neck
				{
					OFFSET 0.000000 0.000000 0.000000
					CHANNELS 3 Zrotation Yrotation Xrotation
					JOINT Neck1
					{
						OFFSET -0.054170 1.746240 0.172020
						CHANNELS 3 Zrotation Yrotation Xrotation
						JOINT Head
						{
							OFFSET 0.104070 1.761360 -0.123970
							CHANNELS 3 Zrotation Yrotation Xrotation
							End Site
							{
								OFFSET 0.000000 0.000000 0.000000
							}
						}
					}
				}
				JOINT LeftShoulder
				{
					OFFSET 0.000000 0.000000 0.000000
					CHANNELS 3 Zrotation Yrotation Xrotation
					JOINT LeftArm
					{
						OFFSET 3.362410 1.200890 -0.311210
						CHANNELS 3 Zrotation Yrotation Xrotation
						JOINT LeftForeArm
						{
							OFFSET 4.983000 -0.000000 -0.000000
							CHANNELS 3 Zrotation Yrotation Xrotation
							JOINT LeftHand
							{
								OFFSET 3.483560 -0.000000 -0.000000
								CHANNELS 3 Zrotation Yrotation Xrotation
								JOINT LeftFingerBase
								{
									OFFSET 0.000000 0.000000 0.000000
									CHANNELS 3 Zrotation Yrotation Xrotation
									JOINT LeftHandIndex1
									{
										OFFSET 0.715260 -0.000000 -0.000000
										CHANNELS 3 Zrotation Yrotation Xrotation
										End Site
										{
											OFFSET 0.000000 0.000000 0.000000
										}
									}
								}
								JOINT LThumb
								{
									OFFSET 0.000000 0.000000 0.000000
									CHANNELS 3 Zrotation Yrotation Xrotation
									End Site
									{
										OFFSET 0.000000 0.000000 0.000000
									}
								}
							}
						}
					}
				}
				JOINT RightShoulder
				{
					OFFSET 0.000000 0.000000 0.000000
					CHANNELS 3 Zrotation Yrotation Xrotation
					JOINT RightArm
					{
						OFFSET -3.136600 1.374050 -0.404650
						CHANNELS 3 Zrotation Yrotation Xrotation
						JOINT RightForeArm
						{
							OFFSET -5.241900 -0.000000 -0.000000
							CHANNELS 3 Zrotation Yrotation Xrotation
							JOINT RightHand
							{
								OFFSET -3.444170 -0.000000 -0.000000
								CHANNELS 3 Zrotation Yrotation Xrotation
								JOINT RightFingerBase
								{
									OFFSET 0.000000 0.000000 0.000000
									CHANNELS 3 Zrotation Yrotation Xrotation
									JOINT RightHandIndex1
									{
										OFFSET -0.622530 -0.000000 -0.000000
										CHANNELS 3 Zrotation Yrotation Xrotation
										End Site
										{
											OFFSET 0.000000 0.000000 0.000000
										}
									}
								}
								JOINT RThumb
								{
									OFFSET 0.000000 0.000000 0.000000
									CHANNELS 3 Zrotation Yrotation Xrotation
									End Site
									{
										OFFSET 0.000000 0.000000 0.000000
									}
								}
							}
						}
					}
				}
			}
		}
	}
}
MOTION
Frames: 8
Frame Time: 0.008333
23.525943 17.564725 0.328830 139.692055 -85.717797 -133.842750 4.475104 2.057867 -1.192521 -33.983456 7.063873 -4.338965 -0.016079 7.103474 21.833975 1.868666 0.439067 -2.185072 0.876200 5.967700 16.690700 -9.869789 -3.987789 -0.788727 29.242450 9.558183 -28.739644 -1.443700 -11.462298 30.061518 1.868290 -10.527092 -4.326984 -1.421000 7.538600 -21.321100 1.033950 -0.630650 7.026970 -0.402512 -0.797764 -4.487858 -4.380027 -0.957832 -10.014572 -10.289729 -2.998199 -12.358543 10.542076 -3.612585 7.533825 6.727300 -1.710600 4.386800 2.947652 -12.937408 1.800096 -97.047017 7.033493 2.902803 17.336946 -29.682356 -7.052456 1.471424 3.973193 18.793402 31.915889 45.046909 21.892900 -7.125000 0.000000 0.000000 -6.865200 74.644900 -4.807600 -5.290524 11.867663 2.213867 96.972008 -2.801983 0.971240 -13.270190 29.732971 -4.483875 -0.695182 2.747296 8.384831 9.541697 41.497369 6.745400 7.125000 0.000000 0.000000 23.167300 6.528200 27.913800 
23.392898 17.560942 0.321600 148.223347 -85.292623 -142.273222 4.268027 2.111139 -1.107634 -33.593596 6.759053 -4.023399 -0.007903 7.180571 22.019928 1.531022 1.221575 -2.996963 0.796200 5.695600 15.903700 -10.089166 -3.964378 -0.858784 29.951528 9.708915 -28.223649 -1.463980 -11.430258 30.128053 1.753545 -10.042708 -4.441516 -1.542200 7.839300 -22.227000 1.069520 -0.668360 6.744933 -0.293401 -0.859208 -4.548740 -3.978845 -0.941443 -10.072853 -10.512582 -2.810487 -12.537261 10.474201 -3.311892 7.682205 6.742200 -1.574100 4.453500 2.993536 -12.940342 1.781101 -97.266565 7.143769 3.067693 17.539370 -29.935708 -7.115952 1.423335 4.006964 18.516312 31.384963 45.052498 21.511300 -7.125000 0.000000 0.000000 -7.681300 74.462100 -5.350500 -5.220599 11.876758 2.211764 96.710414 -2.935084 1.173698 -13.465508 29.843099 -4.535202 -0.767551 2.693466 7.983547 9.150493 41.387177 6.517400 7.125000 0.000000 0.000000 23.003800 6.486400 27.665800 
23.256293 17.559719 0.314925 156.750628 -84.712133 -150.727621 4.098778 2.229658 -1.000225 -33.190211 6.353632 -3.647948 -0.008470 7.263233 22.206362 1.102245 2.189631 -3.929066 0.712600 5.395000 15.038800 -10.270541 -3.885159 -0.976018 30.758730 9.671368 -27.636619 -1.487763 -11.362856 30.139916 1.575775 -9.314870 -4.429051 -1.630600 8.050000 -22.866200 1.202608 -0.648672 6.449069 -0.181789 -0.843804 -4.584669 -3.612899 -0.878931 -10.045516 -10.445878 -2.640378 -12.646191 10.308597 -3.062511 7.728116 6.640000 -1.453900 4.446700 3.052127 -12.903901 1.765329 -97.446526 7.162862 3.308941 17.694709 -30.149479 -7.169931 1.401106 4.033121 18.198383 31.231718 45.038419 21.387100 -7.125000 0.000000 0.000000 -7.879600 74.380100 -5.475200 -5.136989 11.893610 2.219753 96.390667 -2.960476 1.419022 -13.619833 29.908483 -4.573761 -0.820706 2.648230 7.498565 9.023935 41.240162 6.437600 7.125000 0.000000 0.000000 22.957500 6.390600 27.565600 
23.123915 17.558273 0.304691 164.331631 -84.053022 -158.220147 3.997035 2.386160 -0.879839 -32.760427 5.960920 -3.305168 -0.009477 7.344565 22.393380 0.691479 3.103959 -4.830182 0.641900 5.125500 14.266900 -10.377553 -3.779851 -1.095538 31.624923 9.417018 -27.174696 -1.524246 -11.297599 30.164771 1.338956 -8.362088 -4.217850 -1.778500 8.388500 -23.900500 1.373035 -0.567017 6.226866 -0.071854 -0.756933 -4.639531 -3.227778 -0.771917 -10.115484 -10.422320 -2.486872 -12.789039 10.158347 -2.840379 7.897625 6.552000 -1.354000 4.521900 3.109223 -12.870396 1.743323 -97.591377 7.169317 3.607210 17.839892 -30.363537 -7.240670 1.407245 4.055995 17.795316 31.580450 45.271465 21.715900 -7.125000 0.000000 0.000000 -7.632400 74.692200 -5.353900 -5.060327 11.925597 2.215942 96.126401 -2.953011 1.355861 -13.722607 29.897386 -4.600181 -0.847270 2.620981 7.102515 9.095930 41.132660 6.474000 7.125000 0.000000 0.000000 22.996200 6.308000 27.590900 
22.995765 17.556938 0.289562 170.384012 -83.394252 -164.167592 3.959150 2.538479 -0.763834 -32.355283 5.495324 -2.937507 -0.011715 7.416450 22.573165 0.297047 3.969022 -5.660686 0.587500 4.907700 13.645400 -10.414372 -3.680599 -1.192409 32.459299 9.050182 -26.806618 -1.550635 -11.229623 30.153014 1.112968 -7.445362 -4.110353 -1.767200 8.363300 -23.823200 1.511565 -0.527221 6.047136 0.060680 -0.739745 -4.716412 -2.700318 -0.685794 -10.278935 -10.438207 -2.275855 -12.915847 9.979026 -2.540291 8.178303 6.455400 -1.225700 4.642300 3.185482 -12.847151 1.707637 -97.822788 7.113023 3.727222 17.947086 -30.543261 -7.301438 1.426804 4.085501 17.467406 31.934150 45.484452 22.034600 -7.125000 0.000000 0.000000 -7.339700 74.976700 -5.192700 -4.973791 11.966799 2.207325 95.744962 -2.984986 1.325935 -13.668871 29.737061 -4.604097 -0.879338 2.611261 6.786819 9.071118 41.205437 6.480200 7.125000 0.000000 0.000000 22.990700 6.380900 27.609300 
22.864389 17.556827 0.273877 174.943671 -82.716623 -168.539836 3.964643 2.651943 -0.675327 -32.088556 4.792933 -2.512872 -0.026393 7.477993 22.732645 -0.170956 4.979244 -6.534611 0.510400 4.579500 12.712900 -10.414712 -3.600573 -1.258482 33.165131 8.784064 -26.508955 -1.564238 -11.167904 30.108255 0.912274 -6.630032 -4.075910 -1.703000 8.217900 -23.378000 1.611705 -0.479079 5.698842 0.193582 -0.723093 -4.783470 -2.121315 -0.599136 -10.334221 -10.462392 -2.060187 -13.052848 9.765331 -2.226442 8.416727 6.342900 -1.089500 4.735000 3.266220 -12.819465 1.671684 -98.067006 6.971892 3.854407 18.015949 -30.687625 -7.340965 1.450185 4.113881 17.177202 32.239153 45.523413 22.246000 -7.125000 0.000000 0.000000 -6.879300 75.077200 -4.881000 -4.882614 11.984688 2.200425 95.230468 -2.990516 1.433968 -13.527494 29.489660 -4.580045 -0.911125 2.599942 6.643038 8.893193 41.187126 6.381800 7.125000 0.000000 0.000000 22.917400 6.378900 27.504500 
22.725448 17.558606 0.254632 178.504598 -82.136683 -171.949226 3.988895 2.742034 -0.604309 -31.840855 4.093574 -2.004870 -0.032090 7.540248 22.924357 -0.616643 5.933946 -7.340227 0.399900 4.060300 11.246500 -10.402623 -3.543255 -1.318312 33.809439 8.536137 -26.100871 -1.569939 -11.098011 30.033617 0.740670 -5.926720 -4.107300 -1.733300 8.286900 -23.588800 1.658427 -0.377288 5.253978 0.309687 -0.641390 -4.827219 -1.588526 -0.486539 -10.279453 -10.471303 -1.922272 -13.090643 9.586842 -2.034263 8.587708 6.239000 -1.010900 4.782700 3.328498 -12.783995 1.654007 -98.180755 6.863025 4.221762 18.165857 -30.909324 -7.402043 1.447335 4.134214 16.842048 32.381907 45.494405 22.324700 -7.125000 0.000000 0.000000 -6.589000 75.075100 -4.674300 -4.805033 11.980569 2.193893 94.799736 -2.938793 1.253697 -13.364137 29.204916 -4.544199 -0.913315 2.602015 6.819460 8.746893 41.162376 6.292400 7.125000 0.000000 0.000000 22.852600 6.362500 27.406900 
22.582725 17.562834 0.229269 -178.483389 -81.679170 -174.956825 4.024410 2.828417 -0.530388 -31.567504 3.341432 -1.302575 -0.022330 7.611170 23.181700 -1.049132 6.855000 -8.092140 0.295000 3.492800 9.653900 -10.385403 -3.505535 -1.385137 34.450313 8.197764 -25.495066 -1.576689 -11.013795 29.948665 0.593259 -5.313574 -4.144883 -1.805800 8.449300 -24.087300 1.649487 -0.318781 4.930317 0.440598 -0.620623 -4.866008 -0.977369 -0.395710 -10.254421 -10.527671 -1.779412 -13.100106 9.424136 -1.839709 8.827775 6.149000 -0.937600 4.860200 3.393284 -12.754837 1.637653 -98.316692 6.772640 4.535468 18.356471 -31.170189 -7.477649 1.446515 4.153778 16.497998 32.540987 45.385186 22.380700 -7.125000 0.000000 0.000000 -6.163800 74.999800 -4.362300 -4.722345 11.976907 2.187849 94.392145 -2.900874 0.911200 -13.202432 28.909318 -4.517940 -0.890306 2.626189 7.143965 8.828708 41.301603 6.357100 7.125000 0.000000 0.000000 22.886400 6.471200 27.493700 
